<svg xmlns="http://www.w3.org/2000/svg" viewBox="0 0 512 512" width="512" height="512">
  <!-- ImagePress icon: 手で圧縮する線画モチーフ(オリジナル作画) -->
  <rect width="512" height="512" rx="96" fill="#ffffff"/>
  <g fill="none" stroke="#1d1d1f" stroke-width="18" stroke-linecap="round" stroke-linejoin="round">
    <!-- 上の矢印(下向き) -->
    <path d="M256 62 v56"/>
    <path d="M232 96 l24 26 24-26"/>
    <!-- 下の矢印(上向き) -->
    <path d="M256 450 v-56"/>
    <path d="M232 416 l24-26 24 26"/>
    <!-- 左から流れる線(圧縮されて収束) -->
    <path d="M48 196 C 130 190, 210 214, 292 240"/>
    <path d="M40 256 C 130 252, 210 252, 296 256"/>
    <path d="M48 316 C 130 322, 210 298, 292 272"/>
    <!-- つまむ手(親指+人差し指) -->
    <path d="M472 150 C 420 158, 366 200, 318 236 C 306 245, 306 262, 320 268 L 344 276"/>
    <path d="M472 372 C 424 360, 376 316, 344 292 C 332 282, 336 268, 350 266 L 372 268"/>
    <path d="M472 150 C 484 210, 484 302, 472 372"/>
    <!-- 指先のスパーク -->
    <path d="M348 208 l18-20"/>
    <path d="M368 232 l24-12"/>
    <path d="M372 306 l24 10"/>
  </g>
</svg>
